<?xml version="1.0" encoding="utf-8"?>
<!-- Generator: Adobe Illustrator 24.3.0, SVG Export Plug-In . SVG Version: 6.00 Build 0)  -->
<svg version="1.1" id="Layer_1" xmlns="http://www.w3.org/2000/svg" xmlns:xlink="http://www.w3.org/1999/xlink" x="0px" y="0px"
	 viewBox="0 0 180 180" style="enable-background:new 0 0 180 180;" xml:space="preserve">
<style type="text/css">
	.st0{fill:#FFD55C;}
	.st1{fill:#ABDCE3;}
	.st2{fill:#FF9975;}
	.st3{fill:#657077;}
	.st4{fill:#192E2D;}
	.st5{fill:#CFDBE5;}
	.st6{fill:#FFFFFF;}
</style>
<g>
	<g id="XMLID_583_">
		<path class="st0" d="M90,25.4c-35.7,0-64.6,28.9-64.6,64.6c0,35.7,28.9,64.6,64.6,64.6c35.7,0,64.6-28.9,64.6-64.6
			C154.6,54.3,125.7,25.4,90,25.4z"/>
	</g>
	<g>
		<g>
			<path class="st0" d="M107,132.6H76.6c-2.3,0-4.2,1.9-4.2,4.2v1.2c0,2.3,1.9,4.2,4.2,4.2H107c2.3,0,4.2-1.9,4.2-4.2v-1.2
				C111.2,134.5,109.3,132.6,107,132.6z"/>
		</g>
		<g>
			<path class="st0" d="M104.5,114.2H57.3c-2.3,0-4.2,1.9-4.2,4.2v1.2c0,2.3,1.9,4.2,4.2,4.2h47.2c2.3,0,4.2-1.9,4.2-4.2v-1.2
				C108.8,116.1,106.9,114.2,104.5,114.2z"/>
		</g>
		<g>
			<path class="st0" d="M122.7,114.2h-8.3c-2.3,0-4.2,1.9-4.2,4.2v1.2c0,2.3,1.9,4.2,4.2,4.2h8.3c2.3,0,4.2-1.9,4.2-4.2v-1.2
				C126.9,116.1,125,114.2,122.7,114.2z"/>
		</g>
		<g>
			<path class="st0" d="M105.4,123.2H82.1c2.3,0,4.3,1.9,4.3,4.3v1.1c0,2.3-1.9,4.3-4.3,4.3h23.3c-2.3,0-4.3-1.9-4.3-4.3v-1.1
				C101.1,125.1,103.1,123.2,105.4,123.2z"/>
		</g>
	</g>
	<g>
		<g>
			<path class="st0" d="M75.9,69.3h-25c-1.7,0-3.2,1.4-3.2,3.2V74c0,1.7,1.4,3.2,3.2,3.2h25c1.7,0,3.2-1.4,3.2-3.2v-1.5
				C79.1,70.8,77.7,69.3,75.9,69.3z"/>
		</g>
		<g>
			<path class="st0" d="M91.4,84.2H52.9c-1.7,0-3.2,1.4-3.2,3.2v1.5c0,1.7,1.4,3.2,3.2,3.2h38.6c1.7,0,3.2-1.4,3.2-3.2v-1.5
				C94.6,85.6,93.2,84.2,91.4,84.2z"/>
		</g>
		<g>
			<path class="st0" d="M45.4,84.2h-7.2c-1.7,0-3.2,1.4-3.2,3.2v1.5c0,1.7,1.4,3.2,3.2,3.2h7.2c1.7,0,3.2-1.4,3.2-3.2v-1.5
				C48.6,85.6,47.2,84.2,45.4,84.2z"/>
		</g>
		<g>
			<path class="st0" d="M71.2,76.9H52.4c1.9,0,3.4,1.5,3.4,3.4v0.9c0,1.9-1.5,3.4-3.4,3.4h18.8c-1.9,0-3.4-1.5-3.4-3.4v-0.9
				C67.8,78.5,69.3,76.9,71.2,76.9z"/>
		</g>
	</g>
	<g>
		<g>
			<path class="st0" d="M125.1,71.5h-21.9c-1.7,0-3.2,1.4-3.2,3.2v0.7c0,1.7,1.4,3.2,3.2,3.2h21.9c1.7,0,3.2-1.4,3.2-3.2v-0.7
				C128.3,72.9,126.9,71.5,125.1,71.5z"/>
		</g>
		<g>
			<path class="st0" d="M123.3,58.1H89.3c-1.7,0-3.2,1.4-3.2,3.2V62c0,1.7,1.4,3.2,3.2,3.2h34.1c1.7,0,3.2-1.4,3.2-3.2v-0.7
				C126.5,59.6,125.1,58.1,123.3,58.1z"/>
		</g>
		<g>
			<path class="st0" d="M136.5,58.1h-5.8c-1.7,0-3.2,1.4-3.2,3.2V62c0,1.7,1.4,3.2,3.2,3.2h5.8c1.7,0,3.2-1.4,3.2-3.2v-0.7
				C139.6,59.6,138.2,58.1,136.5,58.1z"/>
		</g>
		<g>
			<path class="st0" d="M124.1,64.7h-16.9c1.7,0,3.1,1.4,3.1,3.1v0.8c0,1.7-1.4,3.1-3.1,3.1h16.9c-1.7,0-3.1-1.4-3.1-3.1v-0.8
				C121,66,122.4,64.7,124.1,64.7z"/>
		</g>
	</g>
	<g>
		<g id="XMLID_2122_">
			<g id="XMLID_2127_">
				<polygon class="st1" points="94.6,124.3 126.9,130 126.9,97.8 94.6,92 				"/>
			</g>
			<g id="XMLID_2126_">
				<polygon class="st2" points="94.6,92 126.9,97.8 144,80.6 111.5,74.8 				"/>
			</g>
			<g id="XMLID_2123_">
				<polygon class="st3" points="126.9,130 144,112.9 144,80.6 126.9,97.8 				"/>
			</g>
		</g>
		<g>
			<path class="st2" d="M57.7,86.7c-12,0-21.7,9.7-21.7,21.7c0,12,9.7,21.7,21.7,21.7c12,0,21.7-9.7,21.7-21.7
				C79.3,96.4,69.6,86.7,57.7,86.7z"/>
		</g>
		<g>
			<g>
				<g>
					<g>
						<polygon class="st4" points="114.3,114.1 114.6,114.9 113.7,114.9 113.7,116.1 116.3,116.1 115.3,113.7 						"/>
					</g>
					<g>
						<rect x="70.3" y="114.9" class="st4" width="3.6" height="1.2"/>
						<rect x="63" y="114.9" class="st4" width="3.6" height="1.2"/>
						<rect x="77.5" y="114.9" class="st4" width="3.6" height="1.2"/>
						<rect x="92" y="114.9" class="st4" width="3.6" height="1.2"/>
						<rect x="106.5" y="114.9" class="st4" width="3.6" height="1.2"/>
						<rect x="99.2" y="114.9" class="st4" width="3.6" height="1.2"/>
						<rect x="84.7" y="114.9" class="st4" width="3.6" height="1.2"/>
					</g>
					<g>
						<polygon class="st4" points="58.8,114.1 57.8,113.7 56.8,116.1 59.4,116.1 59.4,114.9 58.5,114.9 						"/>
					</g>
					<g>
						
							<rect x="66.4" y="88.6" transform="matrix(0.3704 -0.9289 0.9289 0.3704 -39.9186 119.4727)" class="st4" width="3.5" height="1.2"/>
						
							<rect x="63.8" y="95.2" transform="matrix(0.3703 -0.9289 0.9289 0.3703 -47.6918 121.1834)" class="st4" width="3.5" height="1.2"/>
						
							<rect x="61.1" y="101.8" transform="matrix(0.3701 -0.929 0.929 0.3701 -55.4615 122.9137)" class="st4" width="3.5" height="1.2"/>
						
							<rect x="58.5" y="108.4" transform="matrix(0.3711 -0.9286 0.9286 0.3711 -63.2527 124.4951)" class="st4" width="3.5" height="1.2"/>
						
							<rect x="69" y="82" transform="matrix(0.3709 -0.9287 0.9287 0.3709 -32.1645 117.7092)" class="st4" width="3.5" height="1.2"/>
						
							<rect x="76.9" y="62.3" transform="matrix(0.371 -0.9286 0.9286 0.371 -8.8587 112.5887)" class="st4" width="3.5" height="1.2"/>
						
							<rect x="82.2" y="49.1" transform="matrix(0.3704 -0.9289 0.9289 0.3704 6.7257 109.2417)" class="st4" width="3.5" height="1.2"/>
						
							<rect x="79.5" y="55.7" transform="matrix(0.3712 -0.9286 0.9286 0.3712 -1.094 110.8777)" class="st4" width="3.5" height="1.2"/>
						
							<rect x="74.3" y="68.8" transform="matrix(0.3703 -0.9289 0.9289 0.3703 -16.593 114.3648)" class="st4" width="3.5" height="1.2"/>
						
							<rect x="71.7" y="75.4" transform="matrix(0.3713 -0.9285 0.9285 0.3713 -24.4126 115.9599)" class="st4" width="3.5" height="1.2"/>
					</g>
					<g>
						<polygon class="st4" points="85.4,44.5 86.5,44.9 86.6,44.7 86.7,44.9 87.7,44.5 86.6,41.6 						"/>
					</g>
					<g>
						
							<rect x="96.5" y="67.6" transform="matrix(0.9287 -0.3707 0.3707 0.9287 -18.8205 40.9298)" class="st4" width="1.2" height="3.5"/>
						
							<rect x="93.9" y="61.1" transform="matrix(0.9287 -0.3707 0.3707 0.9287 -16.5658 39.4853)" class="st4" width="1.2" height="3.5"/>
						
							<rect x="88.6" y="47.9" transform="matrix(0.9286 -0.3712 0.3712 0.9286 -12.0629 36.6476)" class="st4" width="1.2" height="3.5"/>
						
							<rect x="91.2" y="54.5" transform="matrix(0.9288 -0.3706 0.3706 0.9288 -14.309 38.0302)" class="st4" width="1.2" height="3.5"/>
						
							<rect x="99.1" y="74.2" transform="matrix(0.9289 -0.3703 0.3703 0.9289 -21.0577 42.3117)" class="st4" width="1.2" height="3.5"/>
						
							<rect x="107" y="94" transform="matrix(0.9288 -0.3706 0.3706 0.9288 -27.8346 46.6935)" class="st4" width="1.2" height="3.5"/>
						
							<rect x="112.3" y="107.2" transform="matrix(0.9288 -0.3706 0.3706 0.9288 -32.343 49.5808)" class="st4" width="1.2" height="3.5"/>
						
							<rect x="109.6" y="100.6" transform="matrix(0.9288 -0.3706 0.3706 0.9288 -30.088 48.1351)" class="st4" width="1.2" height="3.5"/>
						
							<rect x="101.7" y="80.8" transform="matrix(0.9288 -0.3706 0.3706 0.9288 -23.3262 43.8059)" class="st4" width="1.2" height="3.5"/>
						
							<rect x="104.4" y="87.4" transform="matrix(0.9286 -0.3711 0.3711 0.9286 -25.6022 45.3146)" class="st4" width="1.2" height="3.5"/>
					</g>
				</g>
				<g>
					<rect x="86" y="98.4" class="st4" width="1.2" height="3.5"/>
					<rect x="86" y="112.2" class="st4" width="1.2" height="2"/>
					<rect x="86" y="91.5" class="st4" width="1.2" height="3.5"/>
					<rect x="86" y="105.3" class="st4" width="1.2" height="3.5"/>
					<rect x="86" y="84.6" class="st4" width="1.2" height="3.5"/>
					<rect x="86" y="56.9" class="st4" width="1.2" height="3.5"/>
					<rect x="86" y="77.7" class="st4" width="1.2" height="3.5"/>
					<rect x="86" y="50" class="st4" width="1.2" height="3.5"/>
					<rect x="86" y="43.1" class="st4" width="1.2" height="3.5"/>
					<rect x="86" y="63.9" class="st4" width="1.2" height="3.5"/>
					<rect x="86" y="70.8" class="st4" width="1.2" height="3.5"/>
				</g>
			</g>
			<g>
				<path class="st5" d="M86.7,111c-2.5,0-4.5,2-4.5,4.5c0,2.5,2,4.5,4.5,4.5c2.5,0,4.5-2,4.5-4.5C91.1,113,89.1,111,86.7,111z"/>
			</g>
			<g>
				<path class="st5" d="M86.7,38.6c-2.5,0-4.5,2-4.5,4.5s2,4.5,4.5,4.5c2.5,0,4.5-2,4.5-4.5S89.1,38.6,86.7,38.6z"/>
			</g>
		</g>
		<g>
			<path class="st2" d="M79,104.7c-0.5-3-1.6-5.8-3.3-8.3c-0.4,0.8-0.9,1.5-1.5,2c-1.7,1.7-15.5-1.5-15.7-6.5
				c-0.1-1.7,0.6-3.6,1.6-5.1c-0.8-0.1-1.6-0.1-2.5-0.1c-12,0-21.7,9.7-21.7,21.7c0,12,9.7,21.7,21.7,21.7c6.9,0,13-3.2,17-8.2
				c-2.6-1.6-4.3-4.6-4.5-7.9c-0.1-2.3,1.1-4.9,2.7-6.5C74.5,105.8,76.8,104.8,79,104.7z"/>
		</g>
		<g>
			<polygon class="st1" points="94.6,107.2 107.2,107.2 107.2,126.5 126.9,130 126.9,97.8 94.6,92 			"/>
		</g>
		<g>
			<path class="st2" d="M70.6,90.9c2.7,3.6,4.2,8.1,4.2,12.9c0,12-9.7,21.7-21.7,21.7c-4.8,0-9.3-1.6-12.9-4.2
				c3.9,5.3,10.3,8.8,17.4,8.8c12,0,21.7-9.7,21.7-21.7C79.3,101.2,75.9,94.9,70.6,90.9z"/>
		</g>
		<g>
			<polygon class="st2" points="94.6,92 115.4,95.7 115.4,87.6 98.9,87.6 			"/>
		</g>
	</g>
	<g>
		<g>
			<path class="st6" d="M79.5,36.8c0,2.1-1.7,3.7-3.7,3.7c2,0,3.7,1.7,3.7,3.7c0-2,1.7-3.7,3.7-3.7C81.1,40.5,79.5,38.9,79.5,36.8z"
				/>
		</g>
		<g>
			<path class="st6" d="M112.2,71.2c0,1.1-0.9,2-2,2c1.1,0,2,0.9,2,2c0-1.1,0.9-2,2-2C113.1,73.2,112.2,72.3,112.2,71.2z"/>
		</g>
		<g>
			<path class="st6" d="M47.7,82c0,3.3-2.7,6.1-6,6.1c3.3,0,6,2.7,6,6c0-3.3,2.7-6,6.1-6C50.4,88,47.7,85.3,47.7,82z"/>
		</g>
		<g>
			<path class="st6" d="M84.8,42.4c0,1-0.8,1.9-1.9,1.9c1,0,1.9,0.8,1.9,1.9c0-1,0.8-1.9,1.9-1.9C85.6,44.2,84.8,43.4,84.8,42.4z"/>
		</g>
		<g>
			<path class="st6" d="M117.3,65c0,1.7-1.4,3.2-3.2,3.2c1.7,0,3.2,1.4,3.2,3.1c0-1.7,1.4-3.1,3.2-3.1
				C118.7,68.1,117.3,66.7,117.3,65z"/>
		</g>
	</g>
</g>
</svg>
